<svg xmlns:dc="http://purl.org/dc/elements/1.1/" xmlns:cc="http://creativecommons.org/ns#" xmlns:rdf="http://www.w3.org/1999/02/22-rdf-syntax-ns#" xmlns:svg="http://www.w3.org/2000/svg" xmlns="http://www.w3.org/2000/svg" xmlns:sodipodi="http://sodipodi.sourceforge.net/DTD/sodipodi-0.dtd" xmlns:inkscape="http://www.inkscape.org/namespaces/inkscape" version="1.1" id="svg2" xml:space="preserve" width="1273.2" height="377.94666" viewBox="0 0 1273.2 377.94666" sodipodi:docname="UK_Logo_CMYK.svg" inkscape:version="0.92.5 (2060ec1f9f, 2020-04-08)"><metadata id="metadata8"><rdf:RDF><cc:Work rdf:about=""><dc:format>image/svg+xml</dc:format><dc:type rdf:resource="http://purl.org/dc/dcmitype/StillImage"/><dc:title/></cc:Work></rdf:RDF></metadata><defs id="defs6"/><sodipodi:namedview pagecolor="#ffffff" bordercolor="#666666" borderopacity="1" objecttolerance="10" gridtolerance="10" guidetolerance="10" inkscape:pageopacity="0" inkscape:pageshadow="2" inkscape:window-width="1920" inkscape:window-height="1027" id="namedview4" showgrid="false" inkscape:zoom="0.25997488" inkscape:cx="636.59998" inkscape:cy="188.97333" inkscape:window-x="0" inkscape:window-y="0" inkscape:window-maximized="1" inkscape:current-layer="g10"/><g id="g10" inkscape:groupmode="layer" inkscape:label="ink_ext_XXXXXX" transform="matrix(1.3333333,0,0,-1.3333333,0,377.94667)"><g id="g12" transform="scale(0.1)"><path d="M 3648.16,982.102 V 1530.67 H 3429.7 V 632.809 h 218.46 v 218.453 l 200.46,-218.453 h 272.47 l -282.08,292.882 259.28,286.879 h -266.48 z m 821.04,249.678 c -130.84,-1.2 -265.27,-51.62 -324.1,-178.86 -26.4,-57.611 -28.81,-117.619 -28.81,-138.029 0,-139.243 75.63,-210.059 121.24,-242.469 88.83,-61.223 189.65,-58.82 223.27,-58.82 78.02,0 148.84,9.609 217.26,50.418 49.22,30.011 138.04,102.019 138.04,252.07 0,136.83 -72.02,249.67 -204.06,295.29 -25.2,8.39 -75.62,20.4 -142.84,20.4 m 1.2,-183.65 c 73.22,0 103.23,-50.419 111.64,-75.63 8.39,-21.609 8.39,-39.609 8.39,-49.219 0,-54.011 -22.8,-99.621 -74.41,-120.019 -15.61,-4.813 -31.22,-8.41 -48.02,-8.41 -75.63,0 -123.63,51.617 -123.63,126.039 0,76.82 49.2,127.239 126.03,127.239 m 435.72,482.54 V 632.809 h 210.06 l -3.6,60.019 c 31.21,-31.207 80.43,-78.027 184.85,-78.027 130.85,0 198.06,78.027 225.67,118.84 51.62,78.007 52.82,159.64 52.82,192.05 1.2,166.839 -93.63,303.689 -272.48,303.689 -81.62,1.2 -132.04,-26.41 -158.44,-45.61 -12.01,-8.4 -22.81,-18.01 -33.62,-27.61 l -1.19,374.51 z m 324.1,-488.54 c 16.8,0 78.01,-1.21 105.63,-54.021 13.2,-25.211 14.4,-52.808 14.4,-61.218 0,-32.411 -15.6,-127.243 -122.44,-127.243 -66.01,0 -94.82,34.821 -108.02,58.821 -14.41,26.41 -15.61,52.812 -15.61,63.609 0,75.633 54.01,118.842 126.04,120.052 m 439.32,-409.321 h 219.66 v 896.651 h -219.66 z m 973.47,238.863 c 0,80.418 -7.21,121.226 -19.2,158.448 -7.21,21.6 -27.61,73.22 -75.63,118.83 -86.42,81.63 -193.26,82.83 -232.86,82.83 -145.25,0 -225.66,-63.61 -265.28,-108.04 -50.42,-58.81 -67.22,-127.228 -67.22,-204.049 -1.2,-187.25 111.63,-259.281 182.45,-284.48 62.42,-21.609 127.24,-21.609 147.64,-21.609 180.06,0 266.47,87.617 302.49,153.636 6,10.813 12.01,21.614 20.4,45.621 h -231.66 c -10.8,-20.41 -33.61,-51.621 -91.23,-51.621 -94.82,0 -114.03,81.633 -118.83,109.231 z m -444.13,126.039 c 7.2,14.399 9.61,19.209 14.4,27.609 30.02,49.21 79.23,54.01 98.43,54.01 38.42,0 75.63,-15.61 97.23,-49.21 7.2,-12 9.6,-19.21 14.4,-32.409 z m 1140.32,15.609 c -1.2,48.01 -3.6,66.01 -10.8,90.02 -14.41,48.01 -58.83,126.04 -184.86,126.04 -114.04,1.2 -170.45,-58.82 -202.86,-91.23 l 3.6,74.42 H 6719.81 V 632.809 h 220.87 v 294.082 c 0,12 -1.2,74.419 43.22,104.429 19.2,13.21 40.81,13.21 48.01,13.21 24.01,0 39.6,-7.21 48.01,-12.01 36.01,-25.21 37.22,-67.219 37.22,-105.629 V 632.809 h 222.06 z m 110.43,199.25 v -175.25 h 205.26 L 7383.6,632.809 h 591.78 v 171.652 h -254.47 l 273.68,408.109 h -544.96" style="fill:#231f20;fill-opacity:1;fill-rule:nonzero;stroke:none" id="path14" inkscape:connector-curvature="0"/><path d="m 3432.1,2219.32 v -313.3 c 0,-46.81 0,-99.62 19.2,-144.03 10.8,-26.42 28.81,-50.42 50.41,-69.63 63.62,-57.61 147.65,-70.82 229.28,-70.82 79.22,0 177.65,13.21 241.27,68.42 20.4,16.81 57.61,60.02 70.82,129.64 3.59,25.21 4.8,56.42 4.8,62.42 v 337.3 h -219.67 v -302.49 c 1.2,-36.01 -1.2,-81.63 -34.81,-105.63 -21.61,-14.4 -48.01,-14.4 -54.01,-14.4 -91.24,0 -87.63,80.41 -88.83,105.63 v 316.89 z m 1353.99,-199.26 c -1.2,48.01 -3.6,66.02 -10.81,90.02 -14.4,48.03 -58.81,126.05 -184.85,126.05 -114.03,1.19 -170.45,-58.83 -202.86,-91.23 l 3.61,74.42 H 4166.7 v -579.77 h 220.87 v 294.08 c 0,12.01 -1.2,74.42 43.22,104.44 19.2,13.2 40.81,13.2 48.01,13.2 24.01,0 39.61,-7.2 48.01,-12.01 36.01,-25.21 37.21,-67.21 37.21,-105.63 v -294.08 h 222.07 z m 340.9,199.26 h -219.67 v -579.77 h 219.67 z m -195.66,90.02 c 31.21,-30 69.62,-34.81 84.02,-34.81 63.62,0 117.64,52.82 117.64,117.64 0,64.81 -52.82,117.63 -117.64,117.63 -64.82,0 -117.63,-51.62 -117.63,-116.44 0,-44.4 22.81,-73.21 33.61,-84.02 m 238.86,-90.02 277.28,-579.77 h 169.25 l 272.48,579.77 h -230.47 l -124.83,-296.49 -132.04,296.49 z m 1371.99,-340.9 c 0,80.42 -7.2,121.23 -19.2,158.44 -7.21,21.61 -27.61,73.22 -75.63,118.84 -86.42,81.62 -193.25,82.82 -232.86,82.82 -145.24,0 -225.67,-63.62 -265.28,-108.02 -50.41,-58.82 -67.23,-127.24 -67.23,-204.07 -1.19,-187.25 111.64,-259.27 182.46,-284.48 62.43,-21.6 127.24,-21.6 147.65,-21.6 180.05,0 266.47,87.62 302.48,153.64 6.01,10.8 12,21.6 20.41,45.61 h -231.67 c -10.8,-20.41 -33.6,-51.61 -91.22,-51.61 -94.83,0 -114.03,81.62 -118.84,109.22 z m -444.12,126.03 c 7.19,14.41 9.6,19.22 14.4,27.61 30.01,49.22 79.22,54.02 98.43,54.02 38.41,0 75.61,-15.61 97.23,-49.22 7.19,-12 9.59,-19.2 14.4,-32.41 z m 984.26,212.46 c -24,4.81 -43.2,9.61 -68.41,9.61 -80.43,0 -138.04,-45.62 -158.45,-61.22 -8.4,-6 -15.61,-12 -22.8,-18.01 l 2.39,72.03 h -212.46 v -579.77 h 219.67 v 260.47 c 1.2,43.21 6,61.22 16.8,80.43 9.6,18 19.2,25.2 26.41,31.2 33.6,22.81 78.02,22.81 87.63,22.81 31.2,0 54.01,-3.59 109.22,-20.41 z m 481.34,-20.4 c -73.22,24.01 -127.23,39.62 -205.26,39.62 -25.21,0 -102.03,1.19 -165.66,-50.42 -61.21,-50.42 -68.4,-120.04 -68.4,-148.85 0,-110.43 86.42,-145.24 121.23,-157.24 55.21,-19.21 93.63,-13.21 116.42,-26.41 12.01,-7.2 13.22,-18.01 13.22,-24.01 0,-7.2 -4.81,-24.01 -22.81,-31.21 -15.6,-7.2 -31.21,-6 -36.01,-6 -67.23,0 -133.24,33.61 -150.04,42.01 -9.61,4.81 -19.21,10.81 -28.81,16.81 l -49.22,-176.45 c 31.21,-15.61 37.22,-18.01 55.22,-24.01 73.22,-25.2 148.83,-28.81 172.85,-28.81 37.21,0 68.41,4.81 81.62,7.2 72.02,13.21 106.83,37.22 130.84,60.02 38.42,36.01 61.22,92.43 61.22,144.05 0,26.4 -6.01,49.21 -9.6,57.61 -2.4,9.6 -13.2,34.82 -34.82,52.81 -36,31.22 -94.82,43.22 -139.23,54.02 -38.41,8.4 -69.62,16.8 -69.62,39.61 0,8.41 4.79,20.41 21.6,26.41 12,4.8 24.01,4.8 27.61,4.8 58.81,0 118.83,-30 132.04,-36.01 z m 327.69,22.81 h -219.67 v -579.77 h 219.67 z m -195.67,90.02 c 31.21,-30 69.62,-34.81 84.03,-34.81 63.62,0 117.63,52.82 117.63,117.64 0,64.81 -52.81,117.63 -117.63,117.63 -64.81,0 -117.63,-51.62 -117.63,-116.44 0,-44.4 22.8,-73.21 33.6,-84.02 m 340.89,64.82 v -154.84 h -81.61 v -146.44 h 81.61 v -433.33 h 218.47 v 433.33 h 117.64 v 146.44 h -117.64 v 154.84 z m 800.62,-48.02 c 27.61,-27.6 62.43,-31.21 75.63,-31.21 57.62,0 106.83,46.83 106.83,106.84 0,57.61 -46.82,106.83 -106.83,106.83 -57.61,0 -106.83,-46.81 -106.83,-106.83 0,-14.41 3.59,-48.02 31.2,-75.63 m -309.69,0 c 27.61,-27.6 62.42,-31.21 75.63,-31.21 58.81,0 106.82,46.83 108.02,106.84 0,57.61 -48.01,106.83 -106.82,106.83 -58.81,0 -108.03,-46.81 -108.03,-106.83 0,-14.41 3.59,-48.02 31.2,-75.63 M 8848,2162.9 c -20.4,19.2 -26.41,25.21 -39.61,33.61 -55.23,38.41 -116.44,39.62 -139.25,39.62 -44.41,0 -151.23,-7.2 -222.05,-115.24 -50.42,-78.03 -52.82,-166.85 -52.82,-196.86 0,-138.04 58.82,-211.26 105.62,-247.27 64.83,-51.61 133.24,-55.22 163.25,-55.22 100.83,0 152.46,44.42 184.86,69.63 l -3.61,-51.62 h 224.48 v 579.77 h -224.48 z m -102.03,-111.63 c 73.22,0 102.03,-44.41 111.64,-72.02 7.19,-20.41 8.39,-40.81 8.39,-48.02 0,-72.02 -44.41,-106.83 -69.62,-117.63 -21.6,-9.6 -44.41,-9.6 -52.81,-9.6 -72.02,0 -100.84,38.41 -112.83,66.01 -9.61,24.01 -9.61,44.42 -9.61,55.23 0,76.81 48.01,108.02 75.62,118.83 19.22,7.2 43.21,7.2 49.22,7.2 m 466.93,322.89 v -154.84 h -81.63 v -146.44 h 81.63 v -433.33 h 218.46 v 433.33 h 117.63 v 146.44 h -117.63 v 154.84 H 9212.9" style="fill:#231f20;fill-opacity:1;fill-rule:nonzero;stroke:none" id="path16" inkscape:connector-curvature="0"/><path d="M 335.836,7.44922 413.66,288.969 H 369.492 C 336.777,163.629 318.922,94.5313 315.93,81.6797 c -3,-12.8399 -4.836,-22.3399 -5.52,-28.5078 h -2.055 c -3.433,20.039 -9.937,44.7773 -19.527,74.2381 l -50.34,161.559 h -46.23 L 140.625,127.41 c -3.082,-9.09 -6.723,-21.371 -10.914,-36.8709 -4.203,-15.4883 -7.238,-28.1094 -9.121,-37.8789 h -2.059 C 117.168,65.5 111.73,90.4219 102.23,127.41 92.7266,164.398 78.8867,218.25 60.7422,288.969 H 16.0469 L 92.8516,7.44922 H 142.164 L 195.336,172.102 c 5.144,16.257 11.133,39.386 17.984,69.347 h 2.051 c 8.902,-35.789 14.981,-58.738 18.234,-68.828 L 285.238,7.44922 Z M 621.605,6.55859 c 13.438,2.82032 27.696,7.48051 42.758,14.00001 V 58.5703 C 634.746,45.8906 604.781,39.5586 574.469,39.5586 c -28.77,0 -51.074,8.5625 -66.914,25.6797 -15.836,17.1328 -24.188,42.2107 -25.043,75.2737 h 193.929 v 26.957 c 0,38.019 -10.281,68.633 -30.828,91.84 -20.55,23.191 -48.461,34.8 -83.734,34.8 -37.668,0 -67.684,-13.359 -90.024,-40.07 -22.343,-26.707 -33.527,-62.769 -33.527,-108.148 0,-45.032 12.035,-80.2191 36.098,-105.5629 24.054,-25.3398 56.894,-38.00779 98.5,-38.00779 19.012,0 35.234,1.41016 48.679,4.23828 M 612.738,236.961 c 11.985,-14.313 17.985,-34.91 17.985,-61.781 H 483.539 c 2.399,26.019 10.313,46.41 23.762,61.129 13.437,14.73 31.465,22.089 54.066,22.089 22.254,0 39.379,-7.148 51.371,-21.437 m 168.508,52.008 H 738.613 V 7.44922 h 42.633 z m -39.039,54.84 c 4.789,-4.707 10.789,-7.071 17.973,-7.071 6.851,0 12.761,2.364 17.73,7.071 4.961,4.711 7.445,11.863 7.445,21.441 0,9.59 -2.484,16.699 -7.445,21.328 -4.969,4.621 -10.879,6.934 -17.73,6.934 -7.184,0 -13.184,-2.274 -17.973,-6.813 -4.801,-4.539 -7.191,-11.687 -7.191,-21.449 0,-9.578 2.39,-16.73 7.191,-21.441 M 918.941,51.1211 c -8.05,9.0703 -12.078,22.0898 -12.078,39.0391 V 255.832 h 81.676 v 33.137 h -81.676 v 65.242 h -24.66 l -17.98,-60.102 -40.321,-17.73 v -20.547 h 40.321 V 88.3594 c 0,-57.3711 27.226,-86.03909 81.679,-86.03909 7.196,0 15.286,0.71875 24.274,2.17969 8.996,1.44922 15.797,3.30078 20.426,5.5195 v 32.6211 c -4.114,-1.1992 -9.68,-2.3515 -16.7,-3.4687 -7.023,-1.1133 -14.297,-1.6602 -21.836,-1.6602 -14.043,0 -25.082,4.5196 -33.125,13.6094 M 1203.93,6.55859 c 13.44,2.82032 27.7,7.48051 42.76,14.00001 v 38.0117 c -29.62,-12.6797 -59.59,-19.0117 -89.9,-19.0117 -28.76,0 -51.07,8.5625 -66.9,25.6797 -15.85,17.1328 -24.2,42.2107 -25.06,75.2737 h 193.93 v 26.957 c 0,38.019 -10.27,68.633 -30.81,91.84 -20.55,23.191 -48.47,34.8 -83.75,34.8 -37.67,0 -67.67,-13.359 -90.02,-40.07 -22.34,-26.707 -33.53,-62.769 -33.53,-108.148 0,-45.032 12.04,-80.2191 36.1,-105.5629 24.06,-25.3398 56.89,-38.00779 98.51,-38.00779 19,0 35.22,1.41016 48.67,4.23828 m -8.87,230.40241 c 11.99,-14.313 17.99,-34.91 17.99,-61.781 h -147.19 c 2.4,26.019 10.32,46.41 23.76,61.129 13.45,14.73 31.47,22.089 54.07,22.089 22.27,0 39.39,-7.148 51.37,-21.437 m 205.76,42.238 c -14.73,-9.929 -27.32,-24.051 -37.75,-42.379 h -2.06 l -4.89,52.149 h -35.18 V 7.44922 h 42.63 V 158.48 c 0,27.579 8.1,50.61 24.27,69.098 16.19,18.504 35.67,27.742 58.44,27.742 8.91,0 19.18,-1.281 30.83,-3.851 l 5.91,39.562 c -9.94,2.047 -21.16,3.078 -33.65,3.078 -17.65,0 -33.83,-4.98 -48.55,-14.91 M 1548.63,8.10156 C 1554.36,2.69922 1561.6,0 1570.33,0 c 9.77,0 17.47,3 23.13,9 5.64,5.9883 8.47,14.5508 8.47,25.6797 0,11.4687 -2.79,20.1601 -8.35,26.082 -5.57,5.8985 -13.32,8.8477 -23.25,8.8477 -9.76,0 -17.25,-2.9492 -22.47,-8.8477 -5.23,-5.9219 -7.84,-14.6133 -7.84,-26.082 0,-12.3203 2.88,-21.1914 8.61,-26.57814 m 0,226.79644 c 5.73,-5.386 12.97,-8.089 21.7,-8.089 9.77,0 17.47,2.992 23.13,8.992 5.64,5.988 8.47,14.551 8.47,25.687 0,23.114 -10.53,34.672 -31.6,34.672 -20.21,0 -30.31,-11.558 -30.31,-34.672 0,-12.34 2.88,-21.187 8.61,-26.59 M 1883.44,7.44922 h 34.68 V 407.121 h -42.64 V 292.559 l 1.03,-19.77 1.8,-20.301 h -3.34 c -20.38,27.75 -49.66,41.621 -87.85,41.621 -36.64,0 -65.24,-12.847 -85.79,-38.539 -20.54,-25.679 -30.82,-61.73 -30.82,-108.121 0,-46.41 10.23,-82.2107 30.69,-107.3787 20.47,-25.1719 49.1,-37.74999 85.92,-37.74999 39.21,0 68.67,14.28909 88.36,42.89059 h 2.31 z M 1734.46,65.5 c -13.18,18.3203 -19.77,45.469 -19.77,81.43 0,35.449 6.63,62.879 19.91,82.32 13.27,19.43 32.4,29.148 57.4,29.148 29.11,0 50.3,-8.519 63.57,-25.546 13.27,-17.051 19.91,-45.512 19.91,-85.403 v -9 c 0,-35.277 -6.55,-60.8396 -19.64,-76.6677 -13.11,-15.8399 -34.22,-23.7696 -63.33,-23.7696 -25.51,0 -44.86,9.168 -58.05,27.4883 M 2165.61,6.55859 c 13.44,2.82032 27.7,7.48051 42.76,14.00001 v 38.0117 c -29.62,-12.6797 -59.59,-19.0117 -89.89,-19.0117 -28.77,0 -51.08,8.5625 -66.91,25.6797 -15.84,17.1328 -24.19,42.2107 -25.05,75.2737 h 193.93 v 26.957 c 0,38.019 -10.28,68.633 -30.83,91.84 -20.54,23.191 -48.45,34.8 -83.73,34.8 -37.68,0 -67.68,-13.359 -90.03,-40.07 -22.34,-26.707 -33.52,-62.769 -33.52,-108.148 0,-45.032 12.03,-80.2191 36.09,-105.5629 24.06,-25.3398 56.9,-38.00779 98.51,-38.00779 19.01,0 35.23,1.41016 48.67,4.23828 m -8.86,230.40241 c 11.98,-14.313 17.98,-34.91 17.98,-61.781 h -147.18 c 2.4,26.019 10.31,46.41 23.76,61.129 13.45,14.73 31.46,22.089 54.07,22.089 22.26,0 39.39,-7.148 51.37,-21.437 M 2517.9,7.44922 V 191.109 c 0,35.95 -8.56,62.121 -25.68,78.473 -17.13,16.348 -42.65,24.527 -76.55,24.527 -19.35,0 -36.9,-3.808 -52.65,-11.437 -15.76,-7.621 -28.01,-18.363 -36.74,-32.231 h -2.05 l -6.93,38.528 h -34.68 V 7.44922 h 42.63 V 155.148 c 0,36.641 6.85,62.93 20.56,78.864 13.69,15.918 35.27,23.867 64.72,23.867 22.26,0 38.62,-5.641 49.06,-16.949 10.45,-11.289 15.67,-28.418 15.67,-51.371 V 7.44922 Z M 2635.04,151.559 c 1.37,19.679 2.06,34.23 2.06,43.66 v 211.902 h -42.13 V 7.44922 h 42.13 V 112.77 l 32.1,27.742 99.4,-133.06278 h 51.63 l -122,161.57078 114.04,119.949 h -50.6 l -90.92,-96.321 c -15.08,-16.949 -26.29,-30.66 -33.65,-41.089 z M 3028.16,6.55859 c 13.45,2.82032 27.7,7.48051 42.77,14.00001 v 38.0117 c -29.62,-12.6797 -59.58,-19.0117 -89.89,-19.0117 -28.77,0 -51.08,8.5625 -66.92,25.6797 -15.84,17.1328 -24.18,42.2107 -25.04,75.2737 h 193.93 v 26.957 c 0,38.019 -10.28,68.633 -30.83,91.84 -20.54,23.191 -48.46,34.8 -83.73,34.8 -37.67,0 -67.68,-13.359 -90.03,-40.07 -22.35,-26.707 -33.52,-62.769 -33.52,-108.148 0,-45.032 12.03,-80.2191 36.09,-105.5629 24.06,-25.3398 56.89,-38.00779 98.5,-38.00779 19.01,0 35.24,1.41016 48.67,4.23828 m -8.85,230.40241 c 11.98,-14.313 17.98,-34.91 17.98,-61.781 h -147.18 c 2.4,26.019 10.31,46.41 23.76,61.129 13.43,14.73 31.46,22.089 54.06,22.089 22.26,0 39.38,-7.148 51.38,-21.437 M 3380.46,7.44922 V 191.109 c 0,35.95 -8.57,62.121 -25.68,78.473 -17.14,16.348 -42.65,24.527 -76.55,24.527 -19.35,0 -36.91,-3.808 -52.66,-11.437 -15.75,-7.621 -28,-18.363 -36.72,-32.231 h -2.06 l -6.94,38.528 h -34.67 V 7.44922 h 42.64 V 155.148 c 0,36.641 6.84,62.93 20.54,78.864 13.71,15.918 35.27,23.867 64.74,23.867 22.25,0 38.61,-5.641 49.05,-16.949 10.44,-11.289 15.67,-28.418 15.67,-51.371 V 7.44922 h 42.64" style="fill:#c61a27;fill-opacity:1;fill-rule:nonzero;stroke:none" id="path18" inkscape:connector-curvature="0"/><path d="m 1097.68,1334.27 c -2.42,-86.96 -20.83,-181 -96.77,-235.24 -59.844,-39.91 -133.008,-39.91 -149.637,-39.91 -252.718,0 -242.742,222.8 -246.07,292.63 v 877.88 H 0 V 1361.72 C 0,1232.03 0,1085.73 53.207,962.691 83.1289,889.531 133.012,823.031 192.871,769.82 369.105,610.211 601.879,573.641 827.996,573.641 c 219.474,0 492.144,36.57 668.394,189.531 56.52,46.558 159.61,166.269 196.18,359.138 5.14,35.98 7.72,76.34 9.02,109.32 L 2258.2,624.891 h 754.85 l -781.45,811.369 718.26,794.75 h -738.21 l -508.76,-638.44 -0.01,1242.08 h -605.2" style="fill:#c61a27;fill-opacity:1;fill-rule:nonzero;stroke:none" id="path20" inkscape:connector-curvature="0"/></g></g></svg>